<?xml version="1.0" encoding="utf-8"?>
<!-- Generator: Adobe Illustrator 23.0.1, SVG Export Plug-In . SVG Version: 6.00 Build 0)  -->
<svg version="1.1" id="Layer_1" xmlns="http://www.w3.org/2000/svg" xmlns:xlink="http://www.w3.org/1999/xlink" x="0px" y="0px"
	 viewBox="0 0 516 100.8" style="enable-background:new 0 0 516 100.8;" xml:space="preserve">
<style type="text/css">
	.st0{fill:#2A6C9F;}
	.st1{fill:#FFFFFF;}
</style>
<path id="no_line_2" class="st0" d="M14.2,64.3c11.4-3.3,24.9-7.5,27.2-8.9c0.2-0.1,0.4-0.2,0.6-0.2c2.5-0.5,4.3-0.3,5.3-1.4
	c2-1.7,15.2-8.3,16.1-8.2c0.8,0.1,15.5-0.4,20.3-2.7c0.5-0.2,1-0.4,1.6-0.5c0.9-0.1,1.6-0.1,2.1-0.1c0.7,0.1,1.3-0.1,1.9-0.5
	c0.7-0.5,1.6-0.7,2.1-0.7c0.4,0,0.7-0.2,1-0.5c3-2.7,9.3-4.2,13.7-7.3c0.2-0.2,0.5-0.3,0.8-0.3c2-0.1,3.5-1,4.1-1.5
	c0.2-0.2,0.5-0.2,0.7-0.3c30.6-4.1,42.7-3.1,42.7-3.1c2,0.3,0.9-1.9,5.5-2.9c3.9-1.7,36.2-1.7,40.8-1.7c0.3,0,0.6,0.1,0.8,0.2
	c1.4,1,4.5,0.5,4.5,0.5c9.5-1.1,14.1,0.1,15.4,0.6c0.3,0.1,0.6,0.1,0.8,0.1c10.7-1,18.8-3,19.6-3.2c0.1,0,0.1,0,0.2,0
	c30.4-4.4,44.6-4,44.6-4c5.6,0.3,14.8-2.3,14.8-2.3c2.9-0.8,4.7,0.5,5.3,1c0.2,0.2,0.4,0.3,0.6,0.4c5.3,2.4,9.8,3.4,11.1,3.6
	c0.3,0.1,0.6,0.2,0.8,0.4c1.8,1.4,3.8,2,4.5,2.1c0.1,0,0.3,0,0.4,0c2.8-0.1,4,0.5,4.4,0.8c0.1,0.1,0.3,0.2,0.4,0.2
	c4,1.5,6.8,2.4,7.9,2.7c0.4,0.1,0.8,0.2,1.2,0.1c3.4-0.3,6,0.5,7.1,0.9c0.5,0.2,1,0.2,1.5,0c1.5-0.6,2.4-0.8,3.1-0.6
	c0.5,0.2,1.2,0.1,1.7-0.1c2.3-0.8,3.8-1.1,4.9-0.4c0.7,0.5,1.5,0.8,2.3,0.7c0.9-0.1,1.6,0.1,2,0.3c0.5,0.2,1,0.3,1.6,0.3
	c1,0,1.6,0.1,2.1-0.3s1.1-0.6,1.8-0.5c6.7,1.3,34.1,13.6,37.2,14.9c0.2,0.1,0.4,0.1,0.6,0.2c4.6,0.9,59.2,11.6,66.7,16.1
	c0.1,0.1,0.2,0.1,0.3,0.2c11.2,3.9,22.5,7.2,29.2,10.7c6,3.1-396.4,0.7-484.9,0.1C12,69.1,11.5,65.1,14.2,64.3z"/>
<g>
	<path class="st1" d="M73.2,72.1c-0.1,0-0.2-0.1-0.2-0.2l0.1-32.8c0-0.1,0.1-0.2,0.2-0.2h10.3c2,0,3.9,0.4,5.5,1.3s2.9,2,3.8,3.5
		c0.9,1.4,1.4,3,1.4,4.7c0,1.4-0.3,2.6-1,3.8c-0.7,1.2-1.5,2.1-2.5,2.9c1,0.9,1.8,2,2.4,3.2c0.6,1.2,0.9,2.5,0.9,3.8
		c0,1.8-0.5,3.5-1.5,5.1c-1,1.5-2.3,2.7-4,3.7c-1.7,0.9-3.6,1.4-5.7,1.4h-9.7V72.1z M79.4,66.2h3.3c1.3,0,2.4-0.4,3.3-1.3
		c0.9-0.8,1.4-1.8,1.4-3s-0.5-2.1-1.4-3c-0.9-0.8-2-1.2-3.3-1.2h-3.3V66.2z M79.5,52h4.1c1.2,0,2.3-0.4,3-1.2
		c0.8-0.8,1.2-1.6,1.2-2.6s-0.4-1.9-1.2-2.7c-0.8-0.7-1.8-1.1-2.9-1.1h-4.1V52H79.5z"/>
	<path class="st1" d="M94.9,71.8l6.6-32.8c0-0.1,0.1-0.2,0.3-0.2h7.8c0.1,0,0.2,0.1,0.3,0.2l6.4,32.8c0,0.2,0,0.2-0.2,0.2h-5.9
		c-0.1,0-0.2-0.1-0.3-0.2l-0.6-3.5H102l-0.6,3.5c0,0.2-0.1,0.2-0.3,0.2h-5.9C95,72.1,94.9,72,94.9,71.8z M103,63.2h5.1l-2.2-13.4
		l-0.3-1.8l-0.2,1.8L103,63.2z"/>
	<path class="st1" d="M116.9,72.1c-0.1,0-0.2-0.1-0.2-0.2l6.1-17.1l-6-15.8c0-0.1,0-0.2,0.2-0.2h6c0.2,0,0.3,0.1,0.3,0.2l3.6,11.4
		l3.6-11.4c0-0.1,0.1-0.2,0.3-0.2h5.9c0.1,0,0.2,0.1,0.2,0.2l-6,15.7l6.1,17.1c0.1,0.2,0,0.2-0.2,0.2h-6c-0.1,0-0.3-0.1-0.3-0.2
		l-3.6-12.3l-3.7,12.3c0,0.2-0.1,0.2-0.3,0.2L116.9,72.1L116.9,72.1z"/>
	<path class="st1" d="M145.6,72.1c-0.1,0-0.2-0.1-0.2-0.2V44.7h-7c-0.2,0-0.3-0.1-0.3-0.2l0.1-5.4c0-0.1,0.1-0.2,0.2-0.2h20.4
		c0.2,0,0.3,0.1,0.3,0.2v5.4c0,0.2-0.1,0.2-0.2,0.2h-7l0.1,27.2c0,0.2-0.1,0.2-0.2,0.2H145.6z"/>
	<path class="st1" d="M161.8,72.1c-0.1,0-0.2-0.1-0.2-0.2l0.1-32.8c0-0.1,0.1-0.2,0.2-0.2h17.2c0.1,0,0.2,0.1,0.2,0.2v5.4
		c0,0.1-0.1,0.2-0.2,0.2h-11v7.5h11c0.1,0,0.2,0.1,0.2,0.2l0.1,5.4c0,0.1-0.1,0.2-0.2,0.2h-11v8.4h11c0.1,0,0.2,0.1,0.2,0.2V72
		c0,0.1-0.1,0.2-0.2,0.2h-17.4V72.1z"/>
	<path class="st1" d="M184.3,72.1c-0.1,0-0.2-0.1-0.2-0.2l0.1-32.8c0-0.1,0.1-0.2,0.2-0.2h10.8c1.9,0,3.7,0.4,5.3,1.3
		c1.6,0.8,2.9,2,3.9,3.4s1.4,3,1.4,4.8c0,1.2-0.2,2.2-0.6,3.2c-0.4,0.9-0.9,1.7-1.4,2.4c-0.5,0.7-1,1.1-1.4,1.5
		c1.9,1.9,2.9,4.2,2.9,6.7l0.1,9.8c0,0.2-0.1,0.2-0.3,0.2H199c-0.1,0-0.2,0-0.2-0.1v-9.9c0-1.1-0.5-2.1-1.4-3
		c-0.9-0.8-2-1.3-3.3-1.3h-3.5l-0.1,14c0,0.2-0.1,0.2-0.2,0.2H184.3z M190.7,52.1h4.6c1.1,0,2.1-0.4,2.9-1.1
		c0.9-0.7,1.3-1.6,1.3-2.7c0-1-0.4-1.9-1.3-2.6c-0.8-0.7-1.8-1.1-3-1.1h-4.6v7.5H190.7z"/>
	<path class="st1" d="M227,72.6c-1.9,0-3.7-0.4-5.3-1.3c-1.6-0.9-2.9-2-3.8-3.5c-0.9-1.4-1.4-3-1.4-4.8v-2.2c0-0.2,0.1-0.2,0.3-0.2
		h6c0.1,0,0.2,0.1,0.2,0.2V63c0,1.1,0.4,2,1.2,2.7c0.8,0.7,1.7,1.1,2.8,1.1c1.1,0,2.1-0.4,2.8-1.1c0.8-0.8,1.2-1.7,1.2-2.7
		c0-1.2-0.9-2.2-2.6-3.1c-0.6-0.3-1.5-0.7-2.7-1.3c-1.2-0.6-2.4-1.2-3.4-1.7c-2-1-3.4-2.3-4.4-3.8c-0.9-1.5-1.4-3.3-1.4-5.2
		c0-1.8,0.5-3.4,1.4-4.8c1-1.4,2.2-2.5,3.8-3.4c1.6-0.8,3.3-1.2,5.2-1.2c1.9,0,3.6,0.4,5.2,1.3c1.6,0.8,2.9,2,3.8,3.4s1.4,3,1.4,4.8
		v3.9c0,0.1-0.1,0.2-0.2,0.2h-6c-0.1,0-0.2-0.1-0.2-0.2l-0.1-3.9c0-1.1-0.4-2-1.2-2.7c-0.8-0.7-1.7-1.1-2.8-1.1
		c-1.1,0-2.1,0.4-2.8,1.1c-0.8,0.7-1.2,1.6-1.2,2.7s0.2,1.9,0.8,2.6c0.5,0.7,1.4,1.4,2.7,2c0.2,0.1,0.5,0.3,1,0.5s1.1,0.5,1.7,0.8
		s1.2,0.6,1.6,0.8c0.5,0.2,0.8,0.4,0.9,0.4c1.8,0.9,3.2,2,4.2,3.3s1.6,2.9,1.6,4.8c0,1.8-0.5,3.4-1.4,4.9c-0.9,1.4-2.2,2.6-3.8,3.4
		C230.7,72.1,228.9,72.6,227,72.6z"/>
	<path class="st1" d="M246.4,72.1c-0.1,0-0.2-0.1-0.2-0.2V44.7h-7c-0.2,0-0.3-0.1-0.3-0.2l0.1-5.4c0-0.1,0.1-0.2,0.2-0.2h20.4
		c0.2,0,0.3,0.1,0.3,0.2v5.4c0,0.2-0.1,0.2-0.2,0.2h-7l0.1,27.2c0,0.2-0.1,0.2-0.2,0.2H246.4z"/>
	<path class="st1" d="M258.7,71.8l6.6-32.8c0-0.1,0.1-0.2,0.3-0.2h7.8c0.1,0,0.2,0.1,0.3,0.2l6.4,32.8c0,0.2,0,0.2-0.2,0.2H274
		c-0.1,0-0.2-0.1-0.3-0.2l-0.7-3.4h-7.3l-0.6,3.5c0,0.2-0.1,0.2-0.3,0.2h-5.9C258.7,72.1,258.7,72,258.7,71.8z M266.8,63.2h5.1
		l-2.2-13.4l-0.3-1.8l-0.2,1.8L266.8,63.2z"/>
	<path class="st1" d="M286.2,72.1c-0.1,0-0.2-0.1-0.2-0.2V44.7h-7c-0.2,0-0.3-0.1-0.3-0.2l0.1-5.4c0-0.1,0.1-0.2,0.2-0.2h20.4
		c0.2,0,0.3,0.1,0.3,0.2v5.4c0,0.2-0.1,0.2-0.2,0.2h-7l0.1,27.2c0,0.2-0.1,0.2-0.2,0.2H286.2z"/>
	<path class="st1" d="M302.5,72.1c-0.1,0-0.2-0.1-0.2-0.2l0.1-32.8c0-0.1,0.1-0.2,0.2-0.2h17.2c0.1,0,0.2,0.1,0.2,0.2v5.4
		c0,0.1-0.1,0.2-0.2,0.2h-11v7.5h11c0.1,0,0.2,0.1,0.2,0.2l0.1,5.4c0,0.1-0.1,0.2-0.2,0.2h-11v8.4h11c0.1,0,0.2,0.1,0.2,0.2V72
		c0,0.1-0.1,0.2-0.2,0.2h-17.4V72.1z"/>
	<path class="st1" d="M333,72.1c-0.2,0-0.3-0.1-0.3-0.2l0.1-32.8c0-0.1,0.1-0.2,0.2-0.2h10.3c3.3,0,5.9,0.9,7.8,2.7s2.9,4.2,2.9,7.3
		c0,2.3-0.5,4.2-1.5,5.9c-1,1.7-2.3,2.9-3.9,3.8s-3.4,1.3-5.3,1.3h-4.1v12c0,0.2-0.1,0.2-0.3,0.2L333,72.1L333,72.1z M339.2,54h4.1
		c1.1,0,2.1-0.5,3-1.5c0.8-1,1.3-2.2,1.3-3.8c0-1.2-0.4-2.3-1.1-3.1c-0.8-0.8-1.8-1.2-3.1-1.2h-4.1L339.2,54L339.2,54z"/>
	<path class="st1" d="M352.7,71.8l6.6-32.8c0-0.1,0.1-0.2,0.3-0.2h7.8c0.1,0,0.2,0.1,0.3,0.2l6.4,32.8c0,0.2,0,0.2-0.2,0.2H368
		c-0.1,0-0.2-0.1-0.3-0.2l-0.7-3.4h-7.3l-0.6,3.5c0,0.2-0.1,0.2-0.3,0.2h-5.9C352.7,72.1,352.7,72,352.7,71.8z M360.8,63.2h5.1
		l-2.2-13.4l-0.3-1.8l-0.2,1.8L360.8,63.2z"/>
	<path class="st1" d="M377.6,72.1c-0.1,0-0.2-0.1-0.2-0.2l0.1-32.8c0-0.1,0.1-0.2,0.2-0.2h10.8c1.9,0,3.7,0.4,5.3,1.3s2.9,2,3.9,3.4
		s1.4,3,1.4,4.8c0,1.2-0.2,2.2-0.6,3.2c-0.4,0.9-0.9,1.7-1.4,2.4c-0.5,0.7-1,1.1-1.4,1.5c1.9,1.9,2.9,4.2,2.9,6.7l0.1,9.8
		c0,0.2-0.1,0.2-0.3,0.2h-6.1c-0.1,0-0.2,0-0.2-0.1v-9.9c0-1.1-0.5-2.1-1.4-3s-2-1.3-3.3-1.3h-3.5l-0.1,14c0,0.2-0.1,0.2-0.2,0.2
		H377.6z M383.9,52.1h4.6c1.1,0,2.1-0.4,2.9-1.1c0.9-0.7,1.3-1.6,1.3-2.7c0-1-0.4-1.9-1.3-2.6c-0.8-0.7-1.8-1.1-3-1.1h-4.6
		L383.9,52.1L383.9,52.1z"/>
	<path class="st1" d="M403.4,72.1c-0.1,0-0.2-0.1-0.2-0.2l0.1-32.8c0-0.2,0.1-0.2,0.2-0.2h6c0.1,0,0.2,0.1,0.2,0.2v11.3l8.4-11.4
		c0.1-0.1,0.2-0.2,0.4-0.2h6.2c0.1,0,0.2,0.1,0.1,0.2l-9.3,13.2l10.4,19.7c0.1,0.1,0,0.2-0.3,0.2h-6.5c-0.2,0-0.3-0.1-0.3-0.2
		l-7.2-14l-1.9,2.6v11.4c0,0.2-0.1,0.2-0.2,0.2L403.4,72.1L403.4,72.1z"/>
</g>
</svg>
